<?xml version="1.0" encoding="UTF-8" standalone="no"?>
<svg
   xmlns:osb="http://www.openswatchbook.org/uri/2009/osb"
   xmlns:dc="http://purl.org/dc/elements/1.1/"
   xmlns:cc="http://creativecommons.org/ns#"
   xmlns:rdf="http://www.w3.org/1999/02/22-rdf-syntax-ns#"
   xmlns:svg="http://www.w3.org/2000/svg"
   xmlns="http://www.w3.org/2000/svg"
   xmlns:xlink="http://www.w3.org/1999/xlink"
   xmlns:sodipodi="http://sodipodi.sourceforge.net/DTD/sodipodi-0.dtd"
   xmlns:inkscape="http://www.inkscape.org/namespaces/inkscape"
   sodipodi:docname="full_logo.svg"
   inkscape:version="1.0.1 (3bc2e813f5, 2020-09-07)"
   id="svg8"
   version="1.1"
   viewBox="0 0 78.839996 27.384001"
   height="27.384001mm"
   width="78.839996mm">
  <defs
     id="defs2">
    <linearGradient
       id="linearGradient1085"
       osb:paint="solid">
      <stop
         style="stop-color:#8fffff;stop-opacity:1;"
         offset="0"
         id="stop1083" />
    </linearGradient>
    <linearGradient
       inkscape:collect="always"
       id="linearGradient1057">
      <stop
         style="stop-color:#6edbf1;stop-opacity:1;"
         offset="0"
         id="stop1053" />
      <stop
         style="stop-color:#6edbf1;stop-opacity:0;"
         offset="1"
         id="stop1055" />
    </linearGradient>
    <linearGradient
       inkscape:collect="always"
       xlink:href="#linearGradient1057"
       id="linearGradient1059"
       x1="12.788633"
       y1="25.227728"
       x2="4.1878176"
       y2="0.6030643"
       gradientUnits="userSpaceOnUse" />
    <linearGradient
       inkscape:collect="always"
       xlink:href="#linearGradient1057"
       id="linearGradient1061"
       x1="12.788633"
       y1="25.227728"
       x2="4.1878176"
       y2="0.6030643"
       gradientUnits="userSpaceOnUse" />
    <linearGradient
       inkscape:collect="always"
       xlink:href="#linearGradient1057"
       id="linearGradient1063"
       x1="12.788633"
       y1="25.227728"
       x2="4.1878176"
       y2="0.6030643"
       gradientUnits="userSpaceOnUse" />
  </defs>
  <sodipodi:namedview
     inkscape:window-maximized="1"
     inkscape:window-y="-8"
     inkscape:window-x="-8"
     inkscape:window-height="1017"
     inkscape:window-width="1920"
     showgrid="false"
     inkscape:document-rotation="0"
     inkscape:current-layer="layer1"
     inkscape:document-units="mm"
     inkscape:cy="43.809318"
     inkscape:cx="72.333598"
     inkscape:zoom="1.4"
     inkscape:pageshadow="2"
     inkscape:pageopacity="0.0"
     borderopacity="1.0"
     bordercolor="#666666"
     pagecolor="#ffffff"
     id="base"
     showguides="true"
     inkscape:guide-bbox="true" />
  <metadata
     id="metadata5">
    <rdf:RDF>
      <cc:Work
         rdf:about="">
        <dc:format>image/svg+xml</dc:format>
        <dc:type
           rdf:resource="http://purl.org/dc/dcmitype/StillImage" />
        <dc:title></dc:title>
      </cc:Work>
    </rdf:RDF>
  </metadata>
  <g
     id="layer1"
     inkscape:groupmode="layer"
     inkscape:label="Warstwa 1">
    <g
       id="g1357">
      <path
         id="path847-9"
         d="m 25.801355,8.6934508 v -2.33873 c 0.590589,-0.1165 1.181176,-0.14988 1.771763,0 v 2.33873 h 2.433222 c 0.133951,0.40947 0.176617,0.8189496 0,1.2284196 H 27.620365 V 15.68601 c 0.09777,0.33672 0.192534,0.67608 0.637836,0.70871 h 1.771764 c 0.132022,0.35435 0.178321,0.70871 0,1.06306 h -2.882069 c -0.68479,-0.0355 -1.137083,-0.60251 -1.511905,-1.34655 V 10.13449 H 24.40757 c -0.241325,-0.6613396 -0.10262,-1.0376592 0,-1.4410392 z"
         style="fill:none;stroke:none;stroke-width:0.264583px;stroke-linecap:butt;stroke-linejoin:miter;stroke-opacity:1"
         sodipodi:nodetypes="ccccccccccccccccc" />
      <path
         style="fill:none;stroke:none;stroke-width:0.264583px;stroke-linecap:butt;stroke-linejoin:miter;stroke-opacity:1"
         d="m 32.982903,12.52046 h 4.204986 V 11.22117 C 36.981447,10.32369 36.3348,9.7364604 35.156264,9.6856404 33.56143,9.8635004 33.346361,10.45626 32.982903,11.12667 Z"
         id="path848-4"
         sodipodi:nodetypes="cccccc" />
      <path
         style="fill:none;stroke:none;stroke-width:0.264583px;stroke-linecap:butt;stroke-linejoin:miter;stroke-opacity:1"
         d="m 32.918535,13.6768 5.963449,0.0167 c 0.05651,-1.01617 0.02453,-2.02622 -0.03341,-3.04019 -0.238461,-1.4862792 -2.233308,-2.3529892 -3.674957,-2.2884992 -1.682927,0.0753 -3.907057,0.9814896 -4.034345,3.0438992 -0.05557,0.90032 -0.04725,2.81241 -0.04725,2.81241 0.24157,2.58073 1.948461,3.54431 4.449088,3.43705 1.230892,-0.0528 2.323394,-0.0524 3.123713,-0.47346 0.25377,-0.1335 0.11815,-0.976 -0.141988,-1.02732 -1.061493,-0.20942 -2.043398,0.30963 -3.182178,0.1921 -1.927458,-0.25222 -2.553775,-0.91222 -2.422128,-2.67269 z"
         id="path850-0"
         sodipodi:nodetypes="cccascsssccc" />
      <path
         style="fill:none;stroke:none;stroke-width:0.264583px;stroke-linecap:butt;stroke-linejoin:miter;stroke-opacity:1"
         d="m 40.802983,8.8492408 c 0.737622,-0.15311 1.277544,-0.3417 3.257347,-0.40091 1.840042,0.0712 3.018358,0.21703 3.925522,1.9711192 v 7.06593 h -1.45328 c -0.05278,-0.4958 -0.176202,-0.8503 -0.451016,-0.90203 -0.682975,0.7524 -1.383268,0.8355 -2.622582,0.95215 -2.850102,-0.01 -3.032085,-0.97823 -3.374276,-2.47224 0.0041,-1.94098 1.068586,-2.66996 2.488946,-2.97338 h 3.190528 c 0.515903,-0.13057 0.349623,-0.48852 0.367496,-0.7851 -0.05474,-1.04555 -0.68063,-1.7010396 -2.555764,-1.5033896 L 40.869801,10.08536 C 40.56544,9.6506804 40.669967,9.2401804 40.802981,8.8492408 Z"
         id="path852-8"
         sodipodi:nodetypes="cccccccccccccc" />
      <path
         style="fill:none;stroke:none;stroke-width:0.264583px;stroke-linecap:butt;stroke-linejoin:miter;stroke-opacity:1"
         d="m 45.998035,13.29259 v 1.97112 c -0.160933,0.76427 -0.998445,1.12259 -2.271792,1.21941 -0.956162,-0.13743 -1.815923,-0.40171 -1.937703,-1.63702 0.147937,-1.00345 0.687843,-1.59627 1.770661,-1.62032 z"
         id="path854-4"
         sodipodi:nodetypes="cccccc" />
      <path
         style="fill:none;stroke:none;stroke-width:0.264583px;stroke-linecap:butt;stroke-linejoin:miter;stroke-opacity:1"
         d="m 55.887006,9.9517304 c 0.159229,-0.34522 0.105704,-0.69045 0,-1.0356696 l -2.605879,-0.45102 c -3.561545,0.29122 -3.666098,2.4620492 -3.958928,4.5936992 0.218768,2.94582 0.974627,4.60235 3.958928,4.54358 1.361057,-0.0144 2.006497,-0.2333 2.772924,-0.41761 0.22425,-0.5305 0.06963,-0.68212 0,-0.91874 -1.596316,0.12237 -3.131445,0.14514 -3.591436,0 -1.080286,-0.90503 -1.306343,-2.00741 -1.302935,-3.32417 0.169637,-1.80197 0.528373,-3.1196896 2.672691,-3.1069996 z"
         id="path856-0"
         sodipodi:nodetypes="ccccccccccc" />
      <path
         style="fill:none;stroke:none;stroke-width:0.264583px;stroke-linecap:butt;stroke-linejoin:miter;stroke-opacity:1"
         d="m 59.429425,5.0081808 c -0.754309,-0.32201 -1.448837,-0.25546 -2.114307,0 V 17.43415 h 2.102493 v -6.59096 c 0.92601,-1.0140496 1.65453,-0.9419196 2.4096,-1.0158096 0.958046,0.0226 1.330455,0.5136896 1.630022,1.0630596 v 6.52009 h 2.055249 v -6.77995 c -0.32083,-1.2597996 -1.18496,-1.9817592 -3.10447,-2.1313592 -1.058156,0.20369 -2.06079,0.28998 -2.943154,1.0210496 z"
         id="path858-0"
         sodipodi:nodetypes="ccccccccccccc" />
      <path
         style="fill:none;stroke:none;stroke-width:0.264583px;stroke-linecap:butt;stroke-linejoin:miter;stroke-opacity:1"
         d="m 66.929892,8.6698308 h 2.07886 V 17.43415 h -2.10249 z"
         id="path860-0" />
      <path
         style="fill:none;stroke:none;stroke-width:0.264583px;stroke-linecap:butt;stroke-linejoin:miter;stroke-opacity:1"
         d="m 66.610972,6.3311008 c 0.0244,0.54201 0.75679,0.97282 1.29929,0.98038 0.53637,0.007 1.27185,-0.39815 1.31111,-0.93313 0.0673,-0.91773 -0.74706,-1.17824 -1.34654,-1.19299 -0.82848,-0.0204 -1.28944,0.57769 -1.26386,1.14574 z"
         id="path862-9"
         sodipodi:nodetypes="aassa" />
      <path
         style="fill:none;stroke:none;stroke-width:0.264583px;stroke-linecap:butt;stroke-linejoin:miter;stroke-opacity:1"
         d="m 74.595872,8.4161208 c 2.94724,0.0212 4.25319,1.1137096 4.26821,4.5924992 0.0447,2.86206 -1.08367,4.5705 -4.25269,4.67317 -3.58346,-0.22379 -4.29801,-2.17882 -4.25723,-4.58965 0.0539,-2.3791 0.28198,-4.3942492 4.24171,-4.6760192 z"
         id="path864-8"
         sodipodi:nodetypes="ccccc" />
      <path
         style="fill:none;stroke:none;stroke-width:0.264583px;stroke-linecap:butt;stroke-linejoin:miter;stroke-opacity:1"
         d="m 74.629282,9.7512704 c 2.19676,0.048 2.22088,1.8077396 2.40542,3.4410996 -0.0963,2.47676 -1.0334,3.2277 -2.3219,3.25735 -1.2107,-0.12534 -2.38816,-0.33929 -2.48895,-3.4244 0.15734,-1.51486 0.11706,-3.1595796 2.40543,-3.2740496 z"
         id="path866-8"
         sodipodi:nodetypes="ccccc" />
      <path
         style="fill:none;stroke:none;stroke-width:0.264583px;stroke-linecap:butt;stroke-linejoin:miter;stroke-opacity:1"
         d="m 19.588372,19.3949 c 0.666638,0.0642 1.332092,0.10475 1.937129,-1.06306 V 2.2914808 c -0.06818,-0.6863 -0.548894,-1.05174 -1.181177,-1.29928999 -2.018802,-0.5892 -4.395323,-0.87179003 -6.850816,-1.08669003 -2.75214,0.21218 -5.425221,0.46827003 -7.063432,1.29930002 -0.490873,0.28235 -0.753285,0.6626 -0.803199,1.13393 v 4.84282 L 0.85142998,9.4770904 C -0.10072896,9.9347904 -0.02518096,10.71105 0.09449404,11.27137 L 4.270581,26.13824 c 0.544219,1.1571 1.330632,1.46685 2.442888,0.8153 1.112255,-0.65156 3.12656,-1.60539 5.174293,-2.28529 2.033945,-0.59136 4.190856,-0.66627 6.381059,-0.60135 0.943591,-0.2301 1.451774,-0.9008 1.2378,-2.0069 l -0.803486,-2.38634 c -0.01802,-0.2771 -0.143384,-0.63243 0.467722,-0.45102 z"
         id="path868-1"
         sodipodi:nodetypes="ccccccccscczcccccc" />
      <path
         style="fill:none;stroke:none;stroke-width:0.264583px;stroke-linecap:butt;stroke-linejoin:miter;stroke-opacity:1"
         d="m 18.001552,16.48312 c 0.165478,0.36873 0.543562,0.68671 1.236121,0.48443 L 19.137447,3.1697608 c -1.425944,-0.74333 -3.441329,-0.8253 -5.529137,-0.81851 -2.032882,-0.071 -3.9074371,0.11134 -5.49573,0.75169 v 3.4411 l 3.107008,-0.42335 c 1.061734,-0.12275 1.967345,-0.0185 2.873149,0.0501 0.819159,0.0862 1.192317,0.59253 1.436573,1.34208 z"
         id="path870-9"
         sodipodi:nodetypes="cccccccccc" />
      <path
         style="fill:url(#linearGradient1059);fill-opacity:1;stroke:none;paint-order:fill markers stroke"
         d="m 17.302182,21.93801 c 2.046035,-0.0254 -0.943837,-3.12874 -0.943837,-3.12874 -1.793965,-0.86227 -8.837692,0.54628 -11.156692,2.84168 0,0 -0.682119,3.9591 0.999853,3.28641 1.681972,-0.67269 9.054641,-2.97399 11.100676,-2.99935 z"
         id="path872-7"
         sodipodi:nodetypes="zcczz" />
      <path
         style="fill:url(#linearGradient1061);fill-opacity:1;stroke:none;stroke-width:0.264583px;stroke-linecap:butt;stroke-linejoin:miter;stroke-opacity:1"
         d="m 16.038088,16.83595 -0.876273,-3.76936 c -3.533388,-0.0604 -7.945903,0.49441 -11.875287,3.07403 0.170816,1.09613 1.032738,2.47245 1.461405,3.5256 3.473211,-1.50435 7.700007,-2.88018 11.290155,-2.83027 z"
         id="path872-0-5"
         sodipodi:nodetypes="ccccc" />
      <path
         style="fill:url(#linearGradient1063);fill-opacity:1;stroke:none;stroke-width:0.264583px;stroke-linecap:butt;stroke-linejoin:miter;stroke-opacity:1"
         d="M 14.623542,11.58173 13.697156,7.6954408 C 9.975008,7.5947908 5.392857,8.6249708 1.759413,10.96367 l 1.473749,3.63209 c 6.834475,-2.58568 8.926072,-2.85816 11.39038,-3.01403 z"
         id="path872-9-8"
         sodipodi:nodetypes="ccccc" />
      <path
         style="fill:#06315c;fill-opacity:1;stroke:none;stroke-width:0"
         d="M 4.951584,26.85542 C 4.734981,26.67316 4.491379,26.35745 4.410247,26.15384 4.129679,25.44971 0.11314604,10.96897 0.11314604,10.66157 c 0,-0.58076 0.68395695,-1.0671096 3.14041696,-2.2330892 l 2.405425,-1.14175 0.06682,-2.67577 c 0.06592,-2.63984 0.07133,-2.68028 0.403077,-3.01167 0.999511,-0.99844999 5.761163,-1.75147002 8.98166,-1.42039002 3.2591,0.33505003 5.352378,0.82011003 5.946047,1.37784002 l 0.304483,0.28604 V 10.18194 18.5211 l -0.407038,0.40704 c -0.366548,0.36654 -0.469569,0.40036 -1.035669,0.33999 -0.345747,-0.0369 -0.718836,-0.10377 -0.829085,-0.14865 -0.110247,-0.0449 -0.287499,-0.0263 -0.393891,0.0414 -0.163629,0.10406 -0.116747,0.36644 0.304184,1.70244 0.563875,1.78969 0.563414,1.78599 0.287898,2.31878 -0.33837,0.65434 -0.722799,0.75502 -3.204972,0.83937 -3.262204,0.11086 -4.87864,0.56283 -8.517161,2.38149 -0.862485,0.43109 -1.714804,0.78381 -1.894042,0.78381 -0.179239,0 -0.50311,-0.14912 -0.719713,-0.33138 z m 2.912378,-2.76685 c 2.619572,-1.29048 5.104046,-1.94427 7.892934,-2.07701 l 1.545286,-0.0735 -0.392906,-1.48488 c -0.216099,-0.81669 -0.486987,-1.56005 -0.601975,-1.65192 -0.445019,-0.35557 -3.983095,-0.10724 -6.091226,0.42754 -0.686395,0.17411 -1.721928,0.53541 -2.301183,0.80287 -1.043099,0.48164 -2.723625,1.50116 -2.723625,1.65234 0,0.12707 0.826324,3.02052 0.896126,3.13787 0.03509,0.059 0.103401,0.0885 0.15179,0.0655 0.04839,-0.023 0.779539,-0.38241 1.624779,-0.79881 z M 6.14923,18.8964 c 2.458199,-1.26269 5.082257,-1.95185 7.972306,-2.09379 1.587989,-0.078 1.644565,-0.091 1.574487,-0.36079 -0.03998,-0.15394 -0.238214,-0.89628 -0.440523,-1.64965 l -0.367837,-1.36975 h -1.343792 c -3.324229,0 -6.274022,0.7472 -8.914915,2.2582 l -1.008341,0.57693 0.548193,1.65604 c 0.301507,0.91081 0.575557,1.65603 0.609001,1.65603 0.03344,0 0.650583,-0.30295 1.371421,-0.67322 z m 13.053472,-1.85052 c 0.14953,-0.0948 0.163394,-1.29089 0.08138,-7.02009 l -0.09886,-6.9058792 -0.391287,-0.20234 c -0.805815,-0.4167 -2.377757,-0.60687 -5.183679,-0.62709 -2.736739,-0.0197 -3.52525,0.0638 -4.977896,0.52735 l -0.634765,0.20256 v 1.79333 c 0,2.0858 -0.203462,1.91257 1.870887,1.59288 1.660074,-0.25585 4.005074,-0.26154 4.604297,-0.0112 0.249168,0.10411 0.545877,0.33098 0.659349,0.50416 0.113472,0.17319 0.783421,2.4182596 1.488771,4.9890592 1.067226,3.88973 1.338368,4.72464 1.615601,4.97486 0.349055,0.31504 0.663263,0.37434 0.9662,0.18237 z M 4.937863,13.63525 c 3.147083,-1.49325 5.424276,-2.08372 8.036021,-2.08372 1.288616,0 1.456828,-0.0259 1.384864,-0.21346 -0.04505,-0.1174 -0.274042,-0.86909 -0.508868,-1.6704296 l -0.426955,-1.4569796 -1.409725,8e-4 c -3.153036,0.002 -6.338987,0.8183 -8.891845,2.2789392 L 2.1464,11.04823 2.655981,12.56504 c 0.479862,1.42834 0.62615,1.79283 0.71956,1.79283 0.02166,0 0.724708,-0.32518 1.562322,-0.72261 z"
         id="path1015" />
      <path
         style="fill:#06315c;fill-opacity:1;stroke:none;stroke-width:0"
         d="m 26.6601,17.18708 c -0.245084,-0.13016 -0.522047,-0.43709 -0.78372,-0.8685 -0.139041,-0.22923 -0.141853,-0.29371 -0.142097,-3.25735 l -2.51e-4,-3.02348 h -0.603009 c -0.585812,0 -0.60487,-0.005 -0.668174,-0.1713996 -0.07471,-0.1965 -0.08391,-0.51996 -0.02341,-0.8225096 l 0.04176,-0.20881 h 0.726641 0.726638 v -1.19397 -1.19397 l 0.250566,-0.0414 c 0.319405,-0.0528 0.716264,-0.0528 1.035669,0 l 0.250566,0.0414 v 1.19397 1.19397 h 1.228328 c 1.21734,0 1.228688,10e-4 1.268616,0.15034 0.06236,0.23271 0.04937,0.5798896 -0.02705,0.7226796 -0.06433,0.12021 -0.150773,0.12924 -1.236121,0.12924 H 27.538097 V 12.85068 c 0,2.67816 0.01244,3.03959 0.111742,3.24887 0.16619,0.35022 0.400928,0.41948 1.42164,0.41948 0.858155,0 0.870016,0.002 0.909103,0.1578 0.02178,0.0868 0.02987,0.25968 0.01797,0.3842 l -0.02162,0.2264 -1.536801,0.0144 c -1.407038,0.0132 -1.557337,0.004 -1.780037,-0.11476 z"
         id="path1019" />
      <path
         style="fill:#06315c;fill-opacity:1;stroke:none;stroke-width:0"
         d="m 33.765596,17.39087 c -1.235413,-0.33555 -1.992092,-1.05204 -2.40262,-2.275 -0.07232,-0.21544 -0.109519,-0.69849 -0.13122,-1.70385 -0.05106,-2.36534 0.08589,-2.96604 0.845746,-3.7095596 0.438213,-0.42879 1.222465,-0.8563796 1.908477,-1.0405396 0.615434,-0.16521 1.709375,-0.19649 2.269945,-0.0649 1.012639,0.2377 1.891897,0.8239696 2.276146,1.5176892 l 0.197943,0.35736 0.02114,1.5535 0.02114,1.55351 h -2.985381 -2.985395 l 0.02537,0.68535 c 0.02278,0.61528 0.04633,0.72289 0.230357,1.05238 0.513635,0.91963 2.010531,1.33155 3.784457,1.0414 0.357912,-0.0585 0.8729,-0.10644 1.144418,-0.10644 0.574037,0 0.66321,0.0641 0.671576,0.48287 0.0048,0.24028 -0.02111,0.29084 -0.204557,0.39926 -0.404265,0.23892 -1.056333,0.32677 -2.663092,0.3588 -1.382872,0.0276 -1.585643,0.0174 -2.024452,-0.10182 z m 3.526375,-5.53235 c -0.0013,-0.64375 -0.0259,-0.83924 -0.137189,-1.08578 -0.407694,-0.9031996 -1.466609,-1.3635096 -2.552166,-1.1094196 -0.576394,0.13491 -0.889762,0.29794 -1.190429,0.6193296 -0.471109,0.50358 -0.528695,0.67382 -0.528695,1.56298 v 0.798 h 2.204974 2.204973 l -0.0016,-0.78511 z"
         id="path1021" />
      <path
         style="fill:#06315c;fill-opacity:1;stroke:none;stroke-width:0"
         d="m 41.908913,17.25041 c -0.723704,-0.1895 -1.047083,-0.42076 -1.309706,-0.9366 -0.372449,-0.73156 -0.459846,-1.61438 -0.232643,-2.34998 0.250513,-0.81107 0.805731,-1.3206 1.774087,-1.62811 0.474594,-0.15071 0.597638,-0.15982 2.159511,-0.15982 h 1.656244 l 0.154971,-0.16496 c 0.14268,-0.15187 0.152115,-0.20664 0.118962,-0.69035 -0.07,-1.02123 -0.489315,-1.4654796 -1.534586,-1.6258496 -0.40572,-0.0622 -0.720219,-0.0508 -1.889879,0.0688 -0.771742,0.0789 -1.512884,0.15996 -1.646986,0.18016 -0.231169,0.0348 -0.247835,0.0246 -0.321191,-0.1977 -0.08511,-0.25788 -0.03566,-0.6669496 0.09359,-0.7742196 0.0454,-0.0377 0.440653,-0.1325 0.878343,-0.21072 0.964546,-0.17237 3.061075,-0.21152 3.769169,-0.0704 0.894757,0.17833 1.532334,0.5890896 1.998909,1.2877896 l 0.272883,0.4086396 v 3.5003 3.5003 h -0.593484 -0.593485 l -0.124804,-0.3842 c -0.09454,-0.29104 -0.170071,-0.40568 -0.311488,-0.47278 -0.174403,-0.0828 -0.200785,-0.0747 -0.400905,0.12294 -0.510212,0.50377 -1.33587,0.73034 -2.653051,0.72803 -0.542666,-10e-4 -0.914127,-0.0395 -1.264457,-0.13124 z m 3.023262,-0.87098 c 0.503036,-0.16514 0.952481,-0.51151 1.089628,-0.83975 0.06446,-0.15426 0.09153,-0.53287 0.09153,-1.27986 v -1.06079 l -1.012883,-0.0438 c -1.48159,-0.0641 -1.797252,-0.0554 -2.188568,0.0609 -0.74396,0.22094 -1.250566,0.9752 -1.194017,1.77772 0.08897,1.26257 1.602172,1.9149 3.21431,1.38567 z"
         id="path1023" />
      <path
         style="fill:#06315c;fill-opacity:1;stroke:none;stroke-width:0"
         d="m 52.56121,17.44547 c -0.904184,-0.082 -1.393764,-0.28428 -1.941269,-0.80208 -0.594699,-0.56245 -0.941991,-1.46679 -1.106297,-2.88077 -0.161679,-1.3914 0.280903,-3.26146 0.953061,-4.0270096 0.462505,-0.5267596 1.207698,-0.8976196 2.141492,-1.0657396 0.542769,-0.0977 1.191996,-0.0963 1.788465,-0.0787 0.510074,0.0151 1.09856,0.1037 1.388488,0.50129 0.138761,0.1902896 0.258061,0.5675196 0.02529,0.7060696 -0.369935,0.2201996 -1.116481,-0.0751 -1.672772,-0.0353 -0.621914,0.0445 -1.325177,5.3e-4 -1.845424,0.3053096 -0.849752,0.49799 -1.738292,1.73324 -1.508051,3.3748 0.177472,1.26533 0.278667,1.57698 0.748289,2.18835 0.175369,0.22829 0.717518,0.48066 0.717518,0.48066 0,0 0.444836,0.27244 1.254628,0.27871 0.809792,0.006 1.758884,-0.14802 2.494423,0.0277 0.05714,0.0137 0.127841,0.16012 0.129664,0.25566 0.0019,0.0936 -0.05453,0.1859 -0.117459,0.25529 -0.164182,0.18103 -0.03003,0.23315 -0.633052,0.36987 -0.75786,0.17183 -2.092037,0.21158 -2.817011,0.14584 z"
         id="path1025"
         sodipodi:nodetypes="ssssssasacsaczsaasss" />
      <path
         style="fill:#06315c;fill-opacity:1;stroke:none;stroke-width:0"
         d="M 57.405471,11.21223 V 5.1036308 l 0.250566,-0.0868 c 0.322374,-0.11171 1.1142,-0.11171 1.436574,0 l 0.250566,0.0868 v 2.33298 2.3329796 l 0.31738,-0.24357 c 0.41392,-0.3176596 0.754005,-0.4649196 1.52599,-0.6607496 0.922512,-0.23401 1.376363,-0.26551 1.991752,-0.13825 1.048483,0.21683 1.669363,0.6548896 2.035773,1.4363392 l 0.17608,0.37552 v 3.37428 3.37427 H 64.488112 63.58608 L 63.55267,14.01338 C 63.51945,10.75747 63.51843,10.73817 63.369933,10.52998 62.93341,9.9180104 62.336436,9.6606804 61.526229,9.7352504 60.608524,9.8197504 60.13224,10.01505 59.540422,10.54972 l -0.264064,0.23857 v 3.26627 3.26628 H 58.340913 57.40547 Z"
         id="path1027" />
      <path
         style="fill:#06315c;fill-opacity:1;stroke:none;stroke-width:0"
         d="m 67.310092,7.0234108 c -0.38731,-0.19172 -0.55025,-0.41486 -0.54994,-0.75315 8e-4,-0.8173 0.98222,-1.22933 1.86074,-0.78115 0.51874,0.26464 0.64783,0.89365 0.26248,1.27899 -0.41756,0.41756 -1.04107,0.51875 -1.57328,0.25531 z"
         id="path1029" />
      <path
         style="fill:#06315c;fill-opacity:1;stroke:none;stroke-width:0"
         d="m 67.043382,13.06123 0.0172,-4.2596092 0.91874,-0.0186 0.91874,-0.0186 v 4.2781992 4.2782 h -0.93594 -0.93594 z"
         id="path1031" />
      <path
         style="fill:#06315c;fill-opacity:1;stroke:none;stroke-width:0"
         d="m 73.942772,17.49195 c -1.10755,-0.1744 -1.85417,-0.48846 -2.39646,-1.00807 -0.39652,-0.37993 -0.60401,-0.71844 -0.82753,-1.35007 -0.18001,-0.50866 -0.1837,-0.5499 -0.1837,-2.05587 0,-1.26445 0.021,-1.61377 0.11865,-1.97111 0.31454,-1.1514596 0.93745,-1.8326996 2.01466,-2.2033092 1.89677,-0.65258 4.22587,-0.35637 5.12099,0.6512896 0.35178,0.396 0.62608,0.9649996 0.77901,1.6159396 0.17075,0.7268 0.17064,3.05439 -2e-4,3.67302 -0.28083,1.01712 -0.91573,1.84087 -1.71886,2.23016 -0.8109,0.39306 -1.98903,0.56249 -2.90656,0.41802 z m 1.20503,-0.979 c 0.21689,-0.0401 0.50637,-0.13004 0.64327,-0.19989 0.89876,-0.45851 1.38787,-1.7231 1.30283,-3.36847 -0.0732,-1.41648 -0.35832,-2.30063 -0.89392,-2.77208 -0.88499,-0.7789996 -2.6321,-0.6716196 -3.38508,0.20806 -0.33438,0.39064 -0.49149,0.85979 -0.61903,1.84844 -0.0924,0.7164 -0.0971,0.95623 -0.0302,1.53624 0.21748,1.88551 0.88729,2.63417 2.51656,2.81279 0.0392,0.004 0.24871,-0.025 0.46561,-0.0651 z"
         id="path1033" />
    </g>
  </g>
</svg>
