<?xml version="1.0" encoding="UTF-8" standalone="no"?>
<svg
   xmlns:dc="http://purl.org/dc/elements/1.1/"
   xmlns:cc="http://creativecommons.org/ns#"
   xmlns:rdf="http://www.w3.org/1999/02/22-rdf-syntax-ns#"
   xmlns:svg="http://www.w3.org/2000/svg"
   xmlns="http://www.w3.org/2000/svg"
   xmlns:xlink="http://www.w3.org/1999/xlink"
   xmlns:sodipodi="http://sodipodi.sourceforge.net/DTD/sodipodi-0.dtd"
   xmlns:inkscape="http://www.inkscape.org/namespaces/inkscape"
   width="21.5mm"
   height="27.384001mm"
   viewBox="0 0 21.5 27.384001"
   version="1.1"
   id="svg1365"
   inkscape:version="1.0.1 (3bc2e813f5, 2020-09-07)"
   sodipodi:docname="logo.svg">
  <defs
     id="defs1359">
    <linearGradient
       inkscape:collect="always"
       xlink:href="#linearGradient1057"
       id="linearGradient1059"
       x1="12.788633"
       y1="25.227728"
       x2="4.1878176"
       y2="0.6030643"
       gradientUnits="userSpaceOnUse"
       gradientTransform="translate(11.241757,23.349766)" />
    <linearGradient
       inkscape:collect="always"
       id="linearGradient1057">
      <stop
         style="stop-color:#6edbf1;stop-opacity:1;"
         offset="0"
         id="stop1053" />
      <stop
         style="stop-color:#6edbf1;stop-opacity:0;"
         offset="1"
         id="stop1055" />
    </linearGradient>
    <linearGradient
       inkscape:collect="always"
       xlink:href="#linearGradient1057"
       id="linearGradient1960"
       gradientUnits="userSpaceOnUse"
       x1="12.788633"
       y1="25.227728"
       x2="4.1878176"
       y2="0.6030643"
       gradientTransform="translate(11.241757,23.349766)" />
    <linearGradient
       inkscape:collect="always"
       xlink:href="#linearGradient1057"
       id="linearGradient1962"
       gradientUnits="userSpaceOnUse"
       x1="12.788633"
       y1="25.227728"
       x2="4.1878176"
       y2="0.6030643"
       gradientTransform="translate(11.241757,23.349766)" />
  </defs>
  <sodipodi:namedview
     id="base"
     pagecolor="#ffffff"
     bordercolor="#666666"
     borderopacity="1.0"
     inkscape:pageopacity="0.0"
     inkscape:pageshadow="2"
     inkscape:zoom="1.4"
     inkscape:cx="184.61791"
     inkscape:cy="229.94352"
     inkscape:document-units="mm"
     inkscape:current-layer="layer1"
     inkscape:document-rotation="0"
     showgrid="false"
     showguides="true"
     inkscape:guide-bbox="true"
     inkscape:window-width="1465"
     inkscape:window-height="1040"
     inkscape:window-x="2050"
     inkscape:window-y="0"
     inkscape:window-maximized="0" />
  <metadata
     id="metadata1362">
    <rdf:RDF>
      <cc:Work
         rdf:about="">
        <dc:format>image/svg+xml</dc:format>
        <dc:type
           rdf:resource="http://purl.org/dc/dcmitype/StillImage" />
        <dc:title></dc:title>
      </cc:Work>
    </rdf:RDF>
  </metadata>
  <g
     inkscape:label="Warstwa 1"
     inkscape:groupmode="layer"
     id="layer1">
    <g
       id="g1970"
       transform="translate(-11.241757,-23.349766)">
      <path
         style="fill:none;stroke:none;stroke-width:0.264583px;stroke-linecap:butt;stroke-linejoin:miter;stroke-opacity:1"
         d="m 30.735636,42.839152 c 0.666638,0.0642 1.332092,0.10475 1.937129,-1.06305 V 25.735737 c -0.06818,-0.6863 -0.548894,-1.05174 -1.181177,-1.29929 -2.018802,-0.5892 -4.395323,-0.87179 -6.850816,-1.08669 -2.75214,0.21218 -5.425222,0.46827 -7.063433,1.2993 -0.490873,0.28235 -0.753285,0.6626 -0.803199,1.13393 v 4.84282 l -4.775447,2.29554 c -0.952159,0.4577 -0.876611,1.233959 -0.756936,1.794279 l 4.176087,14.866876 c 0.544219,1.15709 1.330632,1.46684 2.442888,0.81529 1.112255,-0.65155 3.12656,-1.60538 5.174294,-2.28529 2.033945,-0.59135 4.190856,-0.66627 6.381059,-0.60135 0.943591,-0.23009 1.451774,-0.90079 1.2378,-2.0069 l -0.803486,-2.38634 c -0.01802,-0.2771 -0.143384,-0.63243 0.467722,-0.45102 z"
         id="path868-1"
         sodipodi:nodetypes="ccccccccscczcccccc" />
      <path
         style="fill:none;stroke:none;stroke-width:0.264583px;stroke-linecap:butt;stroke-linejoin:miter;stroke-opacity:1"
         d="m 29.148816,39.927376 c 0.165478,0.368736 0.543562,0.686706 1.236121,0.484426 L 30.284711,26.614017 c -1.425944,-0.74333 -3.441329,-0.8253 -5.529137,-0.81851 -2.032882,-0.071 -3.907438,0.11134 -5.495731,0.75169 v 3.4411 l 3.107009,-0.42335 c 1.061734,-0.12275 1.967345,-0.0185 2.873149,0.0501 0.819159,0.0862 1.192317,0.59253 1.436573,1.34208 z"
         id="path870-9"
         sodipodi:nodetypes="cccccccccc" />
      <path
         style="fill:url(#linearGradient1059);fill-opacity:1;stroke:none;stroke-width:1;paint-order:fill markers stroke"
         d="m 28.449446,45.382272 c 2.046035,-0.0254 -0.943837,-3.12874 -0.943837,-3.12874 -1.793965,-0.86228 -8.837693,0.54627 -11.156693,2.84168 0,0 -0.682119,3.95909 0.999853,3.28641 1.681972,-0.6727 9.054642,-2.97399 11.100677,-2.99935 z"
         id="path872-7"
         sodipodi:nodetypes="zcczz" />
      <path
         style="fill:url(#linearGradient1962);fill-opacity:1;stroke:none;stroke-width:0.264583px;stroke-linecap:butt;stroke-linejoin:miter;stroke-opacity:1"
         d="m 27.185352,40.280202 -0.876273,-3.769356 c -3.533388,-0.0604 -7.945904,0.49441 -11.875288,3.07403 0.170816,1.096126 1.032738,2.472446 1.461405,3.525606 3.473211,-1.50436 7.700008,-2.880186 11.290156,-2.83028 z"
         id="path872-0-5"
         sodipodi:nodetypes="ccccc" />
      <path
         style="fill:url(#linearGradient1960);fill-opacity:1;stroke:none;stroke-width:0.264583px;stroke-linecap:butt;stroke-linejoin:miter;stroke-opacity:1"
         d="M 25.770806,35.025986 24.84442,31.139697 c -3.722149,-0.10065 -8.3043,0.92953 -11.937744,3.268229 l 1.473749,3.63209 c 6.834476,-2.58568 8.926073,-2.85816 11.390381,-3.01403 z"
         id="path872-9-8"
         sodipodi:nodetypes="ccccc" />
      <path
         style="fill:#06315c;fill-opacity:1;stroke:none;stroke-width:0"
         d="m 16.098847,50.299672 c -0.216603,-0.18225 -0.460205,-0.49797 -0.541337,-0.70157 -0.280568,-0.70413 -4.297101,-15.184876 -4.297101,-15.492276 0,-0.58076 0.683957,-1.067109 3.140417,-2.233089 l 2.405425,-1.14175 0.06682,-2.67577 c 0.06592,-2.63984 0.07133,-2.68028 0.403077,-3.01167 0.999511,-0.99845 5.761164,-1.75147 8.981661,-1.42039 3.2591,0.33505 5.352378,0.82011 5.946047,1.37784 l 0.304483,0.28604 v 8.339159 8.339156 l -0.407038,0.40704 c -0.366548,0.36654 -0.469569,0.40037 -1.035669,0.34 -0.345747,-0.0369 -0.718836,-0.10378 -0.829085,-0.14866 -0.110247,-0.0449 -0.287499,-0.0263 -0.393891,0.0414 -0.163629,0.10406 -0.116747,0.36644 0.304184,1.70244 0.563875,1.78969 0.563414,1.786 0.287898,2.31878 -0.33837,0.65434 -0.722799,0.75502 -3.204972,0.83937 -3.262204,0.11087 -4.87864,0.56284 -8.517162,2.3815 -0.862485,0.43109 -1.714804,0.78381 -1.894042,0.78381 -0.179239,0 -0.50311,-0.14912 -0.719713,-0.33139 z m 2.912378,-2.76684 c 2.619573,-1.29048 5.104047,-1.94428 7.892935,-2.07702 l 1.545286,-0.0735 -0.392906,-1.48488 c -0.216099,-0.81669 -0.486987,-1.56005 -0.601975,-1.65192 -0.445019,-0.35557 -3.983095,-0.10724 -6.091226,0.42754 -0.686396,0.17411 -1.721929,0.53541 -2.301184,0.80287 -1.043099,0.48164 -2.723625,1.50116 -2.723625,1.65234 0,0.12707 0.826324,3.02052 0.896126,3.13787 0.03509,0.059 0.103401,0.0885 0.15179,0.0655 0.04839,-0.023 0.779539,-0.3824 1.624779,-0.7988 z m -1.714732,-5.19218 c 2.458199,-1.26269 5.082258,-1.95185 7.972307,-2.093786 1.587989,-0.078 1.644565,-0.091 1.574487,-0.36079 -0.03998,-0.15394 -0.238214,-0.89628 -0.440523,-1.64965 l -0.367837,-1.36975 h -1.343792 c -3.324229,0 -6.274023,0.7472 -8.914916,2.2582 l -1.008341,0.57693 0.548193,1.656036 c 0.301507,0.91081 0.575557,1.65603 0.609001,1.65603 0.03344,0 0.650583,-0.30295 1.371421,-0.67322 z m 13.053473,-1.85052 c 0.14953,-0.0948 0.163394,-1.290886 0.08138,-7.020086 l -0.09886,-6.905879 -0.391287,-0.20234 c -0.805815,-0.4167 -2.377757,-0.60687 -5.183679,-0.62709 -2.736739,-0.0197 -3.52525,0.0638 -4.977897,0.52735 l -0.634765,0.20256 v 1.79333 c 0,2.0858 -0.203462,1.91257 1.870887,1.59288 1.660075,-0.25585 4.005075,-0.26154 4.604298,-0.0112 0.249168,0.10411 0.545877,0.33098 0.659349,0.50416 0.113472,0.17319 0.783421,2.41826 1.488771,4.98906 1.067226,3.88973 1.338368,4.72464 1.615601,4.974865 0.349055,0.31504 0.663263,0.37434 0.9662,0.18237 z m -14.26484,-3.410626 c 3.147083,-1.49325 5.424277,-2.08372 8.036022,-2.08372 1.288616,0 1.456828,-0.0259 1.384864,-0.21346 -0.04505,-0.1174 -0.274042,-0.86909 -0.508868,-1.670429 l -0.426955,-1.45698 -1.409725,7.94e-4 c -3.153036,0.002 -6.338988,0.8183 -8.891846,2.278939 l -0.974955,0.55783 0.509581,1.51681 c 0.479862,1.42834 0.62615,1.79283 0.71956,1.79283 0.02166,0 0.724708,-0.32518 1.562322,-0.72261 z"
         id="path1015" />
    </g>
  </g>
</svg>
